<svg width="31" height="35" viewBox="0 0 31 35" fill="none" xmlns="http://www.w3.org/2000/svg">
<path d="M28.4173 24.6755V29.0505C28.4188 29.4566 28.3451 29.8586 28.201 30.2308C28.0569 30.6029 27.8455 30.937 27.5804 31.2115C27.3154 31.4861 27.0024 31.6951 26.6616 31.8252C26.3209 31.9554 25.9598 32.0037 25.6015 31.9671C21.6268 31.4795 17.8089 29.9461 14.4544 27.4901C11.3335 25.251 8.68756 22.2636 6.70442 18.7401C4.52147 14.9356 3.16298 10.604 2.739 6.0963C2.70672 5.69302 2.74917 5.28658 2.86365 4.90284C2.97812 4.5191 3.16211 4.16647 3.40391 3.86741C3.6457 3.56836 3.94 3.32942 4.26806 3.16581C4.59613 3.0022 4.95077 2.91751 5.30942 2.91713H9.18442C9.81127 2.91017 10.419 3.16079 10.8943 3.62229C11.3696 4.08378 11.68 4.72466 11.7677 5.42547C11.9313 6.82556 12.2346 8.20028 12.6719 9.52338C12.8457 10.0454 12.8833 10.6126 12.7803 11.158C12.6773 11.7034 12.4379 12.204 12.0907 12.6005L10.4502 14.4526C12.289 18.1036 14.9665 21.1265 18.2002 23.2026L19.8407 21.3505C20.1919 20.9584 20.6352 20.6882 21.1183 20.5719C21.6013 20.4555 22.1038 20.498 22.5661 20.6942C23.738 21.1879 24.9556 21.5304 26.1957 21.7151C26.8231 21.815 27.3961 22.1718 27.8058 22.7176C28.2154 23.2635 28.4331 23.9603 28.4173 24.6755Z" stroke="white" stroke-width="2" stroke-linecap="round" stroke-linejoin="round"/>
</svg>
